{"title":"Hotel.Transylvania.2.2015.WEBRip.480p.x264.AAC-VYTO [P2PDL]","uid":12875749,"size":321461670,"categoryP":"video","categoryS":"movies","magnet":"?xt=urn:btih:c19be24cb1e3cfdd6431281206d6e1a7ce64cc95&amp;dn=Hotel.Transylvania.2.2015.WEBRip.480p.x264.AAC-VYTO+%5BP2PDL%5D&amp;tr=udp%3A%2F%2Ftracker.leechers-paradise.org%3A6969&amp;tr=udp%3A%2F%2Fzer0day.ch%3A1337&amp;tr=udp%3A%2F%2Fopen.demonii.com%3A1337&amp;tr=udp%3A%2F%2Ftracker.coppersurfer.tk%3A6969&amp;tr=udp%3A%2F%2Fexodus.desync.com%3A6969","seeders":0,"leechers":1,"uploader":"VYTOP2PDL","files":7,"time":1448948274,"description":"Hotel.Transylvania.2.2015.WEBRip.480p.x264.AAC-VYTO\r\n\r\n\r\nGenre: Animation, Comedy, Family   \nhttp://www.imdb.com/title/tt2510894/\r\n\r\n\r\nGeneral\r\nFormat                         : MPEG-4\r\nFile size                      : 301 MiB\r\nDuration                       : 1h 29mn\r\nOverall bit rate               : 472 Kbps\r\n\r\nVideo\r\nFormat                         : AVC\r\nBit rate                       : 429 Kbps\r\nWidth                          : 720 pixels\r\nHeight                         : 384 pixels\r\nDisplay aspect ratio           : 1.85:1\r\nFrame rate mode                : Constant\r\nFrame rate                     : 30.000 fps\r\nBit depth                      : 8 bits\r\nStream size                    : 273 MiB (91%)\r\nWriting library                : x264 core 146\r\n\r\nAudio\r\nFormat                         : AAC\r\nBit rate mode                  : Variable\r\nBit rate                       : 40.0 Kbps\r\nChannel(s)                     : 2 channels\r\nChannel positions              : Front: L R\r\nSampling rate                  : 48.0 KHz \r\nStream size                    : 25.5 MiB (8%)\r\nLanguage                       : English\r\n\r\nSubtitle                       : Yes (English)\r\n \nhttp://ititli.com/lk \nhttp://ititli.com/lo \nhttp://ititli.com/lG \nhttp://ititli.com/lH \nhttp://ititli.com/lM \nhttp://ititli.com/lU \nhttp://ititli.com/lh \nhttp://ititli.com/ls \nhttp://ititli.com/lY \nhttp://ititli.com/l4 \nhttp://ititli.com/lK \nhttp://ititli.com/lV\r\n\r\n----------------------------------------------------------------------------------------------------\r\n\r\n\r\nEncoder Notes: Looking For Early Access To Anything You Can Provide DVDScr, R5, DVDR, BluRay, Direct\r\nAudio, Music Releases and Seedboxes. If You Got anything to offer please contact us","torrent":{"xt":"urn:btih:c19be24cb1e3cfdd6431281206d6e1a7ce64cc95","amp;dn":"Hotel.Transylvania.2.2015.WEBRip.480p.x264.AAC-VYTO+%5BP2PDL%5D","amp;tr":["udp%3A%2F%2Ftracker.leechers-paradise.org%3A6969","udp%3A%2F%2Fzer0day.ch%3A1337","udp%3A%2F%2Fopen.demonii.com%3A1337","udp%3A%2F%2Ftracker.coppersurfer.tk%3A6969","udp%3A%2F%2Fexodus.desync.com%3A6969"],"infoHash":"c19be24cb1e3cfdd6431281206d6e1a7ce64cc95","infoHashBuffer":{"type":"Buffer","data":[193,155,226,76,177,227,207,221,100,49,40,18,6,214,225,167,206,100,204,149]},"announce":[],"urlList":[]}}